<svg width="32" height="32" viewBox="0 0 32 32" fill="none" xmlns="http://www.w3.org/2000/svg">
  <defs>
    <linearGradient id="gradient" x1="0%" y1="0%" x2="100%" y2="100%">
      <stop offset="0%" style="stop-color:#6366f1;stop-opacity:1" />
      <stop offset="100%" style="stop-color:#4f46e5;stop-opacity:1" />
    </linearGradient>
  </defs>
  
  <!-- Circular background -->
  <circle cx="16" cy="16" r="16" fill="url(#gradient)"/>
  
  <!-- Location pin icon -->
  <path d="M16 8C13.24 8 11 10.24 11 13C11 16.5 16 24 16 24C16 24 21 16.5 21 13C21 10.24 18.76 8 16 8ZM16 15C14.9 15 14 14.1 14 13C14 11.9 14.9 11 16 11C17.1 11 18 11.9 18 13C18 14.1 17.1 15 16 15Z" fill="white"/>
</svg>
